Coordinates
version=1
nRows=12
nColumns=46
inDegrees=yes

Units are S.I. units (second, meters, Newtons, ...)
Angles are in degrees.

endheader
time	pelvis_tilt	pelvis_list	pelvis_rotation	pelvis_tx	pelvis_ty	pelvis_tz	bb_angle	bb_tx	bb_ty	bb_tz	hip_flexion_r	hip_adduction_r	hip_rotation_r	knee_angle_r	knee_angle_r_beta	ankle_angle_r	subtalar_angle_r	mtp_angle_r	crank_angle_r	hip_flexion_l	hip_adduction_l	hip_rotation_l	knee_angle_l	knee_angle_l_beta	ankle_angle_l	subtalar_angle_l	mtp_angle_l	crank_angle_l	lumbar_extension	lumbar_bending	lumbar_rotation	arm_flex_r	arm_add_r	arm_rot_r	elbow_flex_r	pro_sup_r	wrist_flex_r	wrist_dev_r	arm_flex_l	arm_add_l	arm_rot_l	elbow_flex_l	pro_sup_l	wrist_flex_l	wrist_dev_l
      7.50500000	    -34.46840201	     -9.20254526	     -7.15169839	      0.40855659	      1.07531675	     -0.24322670	      0.00000000	      0.50000000	      0.00000000	      0.25000000	     71.40135858	      4.99597852	      1.68221383	     99.43255423	      1.73542546	    -22.40040817	     -6.81699198	      0.00000000	      0.00000000	     43.19491197	    -13.78124016	     -4.17482994	     27.58720778	      0.48148761	    -20.21138271	    -12.12148376	      0.00000000	      0.00000000	    -55.59293542	      3.99353799	     -1.65199969	     42.16246933	    -28.17088112	     30.11318961	    101.76665754	     54.20223156	      0.00000000	      0.00000000	      4.44332534	    -24.25180261	      0.08573535	    123.74749338	     53.84593723	      0.00000000	      0.00000000
      7.51000000	    -34.41178608	     -9.91212121	     -7.89754931	      0.40839182	      1.07440495	     -0.24293305	      0.00000000	      0.50000000	      0.00000000	      0.25000000	     72.88478681	      5.76193042	      1.11324790	    100.92897769	      1.76154297	    -21.69247962	     -6.72001580	      0.00000000	      0.00000000	     41.98300125	    -14.86151795	     -4.73880137	     26.48233433	      0.46220393	    -21.64362471	    -11.64398600	      0.00000000	      0.00000000	    -55.66195117	      4.25374938	     -0.58943211	     42.54495469	    -28.19682638	     30.22103869	    101.73472425	     54.17450241	      0.00000000	      0.00000000	      4.16049901	    -24.21355754	     -0.03264785	    123.65309023	     53.80776098	      0.00000000	      0.00000000
      7.51500000	    -34.05565072	    -10.29569893	     -8.81922263	      0.40869132	      1.07439435	     -0.24241008	      0.00000000	      0.50000000	      0.00000000	      0.25000000	     74.06000629	      6.53274621	      0.94561808	    102.27778786	      1.78508415	    -21.05570859	     -6.44838469	      0.00000000	      0.00000000	     40.20145198	    -15.72153237	     -5.85576529	     25.11389809	      0.43832021	    -23.69487145	    -11.99266453	      0.00000000	      0.00000000	    -56.08275995	      4.06500556	      0.29234906	     43.14745144	    -28.84485123	     30.92750518	    101.92931016	     54.25771207	      0.00000000	      0.00000000	      3.93646885	    -23.94394674	     -0.39595203	    123.57196673	     53.76220334	      0.00000000	      0.00000000
      7.52000000	    -34.06689621	    -10.92960878	     -9.66807486	      0.40844068	      1.07407201	     -0.24179972	      0.00000000	      0.50000000	      0.00000000	      0.25000000	     75.55413680	      7.26240819	      0.24729905	    103.36852456	      1.80412110	    -20.77126352	     -6.24954112	      0.00000000	      0.00000000	     39.05026460	    -16.78739830	     -6.60096919	     24.10894253	      0.42078043	    -25.41423100	    -11.84402504	      0.00000000	      0.00000000	    -56.19759198	      4.16360716	      1.33205737	     43.52551611	    -29.06163707	     31.11597354	    102.05684374	     54.28513315	      0.00000000	      0.00000000	      3.70081823	    -23.89176921	     -0.61450519	    123.53270626	     53.73674851	      0.00000000	      0.00000000
      7.52500000	    -34.02636221	    -11.29120757	    -10.46107427	      0.40832896	      1.07399988	     -0.24127117	      0.00000000	      0.50000000	      0.00000000	      0.25000000	     76.97381172	      7.83627654	     -0.19024091	    104.37552001	      1.82169648	    -20.31936177	     -6.12483040	      0.00000000	      0.00000000	     37.82678060	    -17.54333182	     -7.57849706	     23.09918245	      0.40315679	    -27.41253801	    -12.07899450	      0.00000000	      0.00000000	    -56.38642057	      4.08606204	      2.22075246	     43.84941814	    -29.67300814	     31.49902395	    102.50684691	     54.38694396	      0.00000000	      0.00000000	      3.61819310	    -23.62850188	     -0.95751717	    123.42163761	     53.69582061	      0.00000000	      0.00000000
      7.53000000	    -34.13339567	    -11.85480449	    -11.13316085	      0.40820853	      1.07389831	     -0.24094188	      0.00000000	      0.50000000	      0.00000000	      0.25000000	     78.44055735	      8.35838162	     -0.89279942	    105.20508363	      1.83617510	    -19.77855012	     -6.03671152	      0.00000000	      0.00000000	     36.96771625	    -18.45352585	     -8.29765416	     22.42091616	      0.39131881	    -29.16578741	    -11.87610497	      0.00000000	      0.00000000	    -56.48838278	      4.22556841	      3.13242159	     44.09780998	    -29.81502302	     31.50084926	    102.66218797	     54.39760964	      0.00000000	      0.00000000	      3.54513220	    -23.56237341	     -1.08868116	    123.42509808	     53.68218817	      0.00000000	      0.00000000
      7.53500000	    -34.20317494	    -12.28575160	    -11.97227598	      0.40881837	      1.07460317	     -0.23977477	      0.00000000	      0.50000000	      0.00000000	      0.25000000	     79.68448675	      9.13031340	     -1.45478819	    105.74866723	      1.84566242	    -19.33090829	     -6.05059853	      0.00000000	      0.00000000	     35.83555795	    -19.33709365	     -9.33770721	     21.47235769	      0.37476334	    -31.61697015	    -11.99053705	      0.00000000	      0.00000000	    -56.72902483	      4.03575325	      4.38465656	     43.92547737	    -30.59748573	     31.59750242	    103.43778702	     54.53277315	      0.00000000	      0.00000000	      3.76826673	    -23.03745897	     -1.21444101	    123.13468991	     53.64891733	      0.00000000	      0.00000000
      7.54000000	    -34.47167752	    -12.58030854	    -12.60629829	      0.40837574	      1.07454694	     -0.23954804	      0.00000000	      0.50000000	      0.00000000	      0.25000000	     81.23460962	      9.52944260	     -1.94101166	    106.24259814	      1.85428314	    -18.94064281	     -5.86470265	      0.00000000	      0.00000000	     35.30613085	    -19.95898032	    -10.01300274	     21.04153609	      0.36724408	    -33.49838862	    -11.88272298	      0.00000000	      0.00000000	    -56.69176644	      4.06210797	      5.18842045	     44.03760806	    -30.76600643	     31.55534212	    103.73462517	     54.57174186	      0.00000000	      0.00000000	      3.80671403	    -22.95477606	     -1.24043933	    123.07790261	     53.64580313	      0.00000000	      0.00000000
      7.54500000	    -34.73711416	    -12.77182546	    -13.13255082	      0.40796808	      1.07469850	     -0.23944968	      0.00000000	      0.50000000	      0.00000000	      0.25000000	     82.69485868	      9.80967191	     -2.35195905	    106.54862461	      1.85962431	    -18.61039057	     -5.73539456	      0.00000000	      0.00000000	     34.89919616	    -20.44247994	    -10.66710555	     20.74348185	      0.36204206	    -35.50554189	    -11.81058129	      0.00000000	      0.00000000	    -56.67075191	      4.06697133	      5.82656688	     44.16716811	    -30.91610303	     31.52794156	    104.04559964	     54.61468242	      0.00000000	      0.00000000	      3.89194392	    -22.83763512	     -1.27787997	    123.02446849	     53.63754841	      0.00000000	      0.00000000
      7.55000000	    -34.98692487	    -12.83635487	    -13.75735554	      0.40799424	      1.07523746	     -0.23938388	      0.00000000	      0.50000000	      0.00000000	      0.25000000	     83.97250359	     10.20633642	     -2.55798006	    106.61964020	      1.86086377	    -18.24294221	     -5.47105876	      0.00000000	      0.00000000	     34.37251919	    -20.81193618	    -11.40549938	     20.37062265	      0.35553444	    -37.60259233	    -12.35944485	      0.00000000	      0.00000000	    -56.73062124	      3.72669055	      8.21884274	     41.83909680	    -33.50176751	     29.59643354	    107.12900188	     54.86866319	      0.00000000	      0.00000000	      6.41472194	    -22.04647126	      1.17214088	    121.19939735	     53.75756638	      0.00000000	      0.00000000
      7.55500000	    -35.24371013	    -12.95000583	    -14.30779738	      0.40780043	      1.07589437	     -0.23921554	      0.00000000	      0.50000000	      0.00000000	      0.25000000	     85.15359827	     10.58419812	     -2.86326790	    106.49149803	      1.85862727	    -17.92067274	     -5.36224166	      0.00000000	      0.00000000	     34.08867732	    -21.28059941	    -12.06560270	     20.45005512	      0.35692079	    -38.80279293	    -11.99164429	      0.00000000	      0.00000000	    -56.77052922	      3.60732842	      8.81070575	     41.96271577	    -33.45316111	     29.55830183	    107.38826496	     54.89634269	      0.00000000	      0.00000000	      6.46810831	    -21.86585656	      1.11105430	    121.12969717	     53.74638695	      0.00000000	      0.00000000
      7.56000000	    -35.56312656	    -13.09181689	    -14.83811858	      0.40746676	      1.07658458	     -0.23872260	      0.00000000	      0.50000000	      0.00000000	      0.25000000	     86.28896504	     10.98255383	     -3.26527977	    106.20222950	      1.85357858	    -17.54874572	     -5.40416707	      0.00000000	      0.00000000	     34.09390307	    -21.89305486	    -12.75169675	     20.95869903	      0.36579830	    -39.30196528	    -11.11879850	      0.00000000	      0.00000000	    -56.82247683	      3.51762323	      9.41636623	     42.08106701	    -33.49099124	     29.56268265	    107.78172191	     54.95083717	      0.00000000	      0.00000000	      6.61608923	    -21.66720739	      1.11840290	    120.99896781	     53.73097807	      0.00000000	      0.00000000
